<?xml version="1.0" standalone="no"?>
<!DOCTYPE svg PUBLIC "-//W3C//DTD SVG 20010904//EN"
 "http://www.w3.org/TR/2001/REC-SVG-20010904/DTD/svg10.dtd">
<svg version="1.0" xmlns="http://www.w3.org/2000/svg"
 width="775.519020" height="358.756747" viewBox="0 0 775.519020 358.756747"
 preserveAspectRatio="xMidYMid meet">
<metadata>
Created by potrace 1.16, written by Peter Selinger 2001-2019
</metadata>
<g transform="translate(-240.480980,827.000000) scale(0.100000,-0.100000)"
fill="#000000" stroke="none">
<path d="M7011 8254 c-207 -44 -374 -202 -425 -400 -20 -78 -21 -222 -1 -299
47 -185 188 -338 365 -397 61 -21 90 -22 440 -28 l375 -5 67 -32 c86 -41 155
-109 199 -198 32 -66 34 -75 34 -175 -1 -136 -23 -196 -105 -284 -64 -68 -138
-110 -221 -126 -29 -6 -203 -10 -389 -10 -308 0 -338 1 -352 18 -17 19 -301
473 -723 1157 -389 629 -486 785 -490 785 -2 0 -16 -21 -33 -47 -16 -27 -112
-178 -213 -338 -100 -159 -386 -611 -636 -1003 -249 -391 -453 -714 -453 -717
0 -3 44 -5 98 -5 l97 0 50 78 c148 232 460 723 939 1480 81 127 149 232 151
232 3 0 248 -390 455 -725 51 -82 221 -356 377 -607 l285 -458 422 0 c341 0
433 3 485 15 194 46 339 183 407 385 25 74 26 261 2 340 -54 172 -203 321
-376 373 -62 19 -91 21 -372 19 -168 -1 -338 3 -378 8 -181 25 -316 155 -353
343 -34 168 73 367 238 445 l58 27 598 3 597 3 0 79 0 80 -577 -1 c-455 0
-592 -4 -642 -15z"/>
<path d="M3968 5090 c-56 -17 -97 -51 -122 -102 -34 -68 -34 -128 0 -196 56
-112 209 -145 304 -66 36 31 38 46 7 63 -21 11 -29 9 -63 -14 -53 -36 -113
-31 -158 14 -29 29 -31 36 -31 102 0 69 1 71 37 105 48 43 97 46 153 9 35 -24
39 -25 61 -10 31 20 30 28 -6 59 -49 41 -120 55 -182 36z"/>
<path d="M5334 5086 c-41 -18 -64 -52 -64 -94 0 -47 40 -84 124 -112 77 -25
106 -49 106 -84 0 -38 -10 -56 -41 -71 -48 -25 -113 -15 -171 27 -28 20 -33 0
-8 -27 51 -54 170 -57 222 -5 22 23 28 37 28 72 0 58 -33 90 -121 119 -107 36
-136 83 -84 134 33 34 99 34 148 0 40 -26 60 -16 31 16 -33 36 -115 48 -170
25z"/>
<path d="M5935 5088 c-48 -17 -94 -56 -116 -100 -17 -33 -20 -55 -17 -114 3
-63 7 -77 34 -111 47 -58 88 -78 161 -78 52 0 68 5 105 30 110 77 119 261 17
337 -61 45 -123 57 -184 36z m135 -41 c90 -48 117 -175 56 -267 -31 -47 -96
-75 -155 -67 -158 21 -194 262 -51 335 56 28 96 28 150 -1z"/>
<path d="M8706 5085 c-58 -20 -104 -71 -122 -134 -47 -159 79 -299 235 -261
90 21 145 96 145 200 0 103 -49 174 -140 199 -50 14 -70 13 -118 -4z m152 -42
c94 -69 105 -203 23 -284 -123 -124 -312 5 -267 181 23 87 85 134 169 127 27
-2 60 -13 75 -24z"/>
<path d="M9965 5086 c-37 -16 -62 -44 -65 -71 -8 -74 17 -102 117 -133 107
-34 138 -82 89 -139 -22 -25 -31 -28 -84 -28 -53 0 -65 4 -90 28 -25 24 -31
26 -41 13 -28 -33 87 -83 162 -70 57 9 107 59 107 107 0 56 -38 93 -122 118
-81 25 -108 47 -108 88 0 68 108 97 170 45 22 -19 34 -24 42 -16 15 15 1 32
-46 53 -48 22 -89 23 -131 5z"/>
<path d="M2557 5078 c-9 -22 -138 -342 -148 -366 -9 -22 -7 -23 33 -20 37 3
42 6 53 38 l12 35 92 3 92 3 16 -41 c15 -37 19 -40 56 -40 27 0 38 4 34 13 -3
6 -32 80 -65 162 -32 83 -65 167 -71 188 -12 35 -15 37 -56 37 -25 0 -45 -5
-48 -12z m77 -152 c14 -37 26 -72 26 -77 0 -5 -27 -9 -60 -9 -33 0 -60 2 -60
4 0 6 51 139 57 149 7 12 8 10 37 -67z"/>
<path d="M3150 4890 l0 -200 41 0 40 0 -2 68 -3 67 37 3 c35 3 38 1 82 -67 43
-69 46 -71 85 -71 22 0 40 2 40 4 0 2 -20 35 -45 73 -49 74 -52 83 -31 83 8 0
26 14 40 31 21 24 26 41 26 83 0 100 -41 126 -200 126 l-110 0 0 -200z m203
129 c28 -15 37 -28 37 -56 0 -42 -34 -63 -98 -63 -32 0 -61 2 -63 4 -2 2 -2
32 -1 65 l4 61 50 0 c27 0 59 -5 71 -11z"/>
<path d="M4547 5083 c-4 -3 -7 -93 -7 -200 l0 -193 40 0 40 0 0 85 0 85 95 0
95 0 0 -85 0 -85 35 0 35 0 0 200 0 200 -35 0 -35 0 0 -80 0 -80 -95 0 -95 0
0 80 0 80 -33 0 c-19 0 -37 -3 -40 -7z"/>
<path d="M6480 4890 l0 -200 121 0 c92 0 120 3 117 13 -3 8 -36 13 -106 15
l-102 3 0 184 c0 158 -2 185 -15 185 -13 0 -15 -29 -15 -200z"/>
<path d="M7017 5083 c-3 -5 -5 -75 -3 -156 2 -160 7 -174 69 -221 34 -25 128
-28 171 -6 63 33 71 55 74 231 3 139 1 159 -12 159 -14 0 -16 -20 -16 -140 0
-164 -10 -198 -63 -223 -42 -21 -77 -21 -120 -4 -58 25 -62 36 -67 205 -3 105
-9 157 -17 159 -6 2 -14 0 -16 -4z"/>
<path d="M7630 5080 c0 -6 28 -10 65 -10 l65 0 0 -190 c0 -179 1 -190 19 -190
18 0 19 10 17 188 l-1 187 68 3 c37 2 67 7 67 12 0 6 -61 10 -150 10 -93 0
-150 -4 -150 -10z"/>
<path d="M8240 4890 c0 -171 2 -200 15 -200 13 0 15 29 15 200 0 171 -2 200
-15 200 -13 0 -15 -29 -15 -200z"/>
<path d="M9270 4890 c0 -171 2 -200 15 -200 13 0 15 25 15 165 0 91 3 165 8
165 4 0 14 -10 21 -22 48 -77 226 -308 237 -308 11 0 14 38 14 200 0 171 -2
200 -15 200 -13 0 -15 -26 -16 -167 l0 -168 -24 30 c-13 17 -70 92 -126 168
-55 75 -107 137 -115 137 -12 0 -14 -35 -14 -200z"/>
</g>
</svg>
