<?xml version="1.0" standalone="no"?>
<!DOCTYPE svg PUBLIC "-//W3C//DTD SVG 20010904//EN"
 "http://www.w3.org/TR/2001/REC-SVG-20010904/DTD/svg10.dtd">
<svg version="1.0" xmlns="http://www.w3.org/2000/svg"
 width="776.569907" height="358.000000" viewBox="0 0 776.569907 358.000000"
 preserveAspectRatio="xMidYMid meet">
<metadata>
Created by potrace 1.16, written by Peter Selinger 2001-2019
</metadata>
<g transform="translate(-239.973160,826.000000) scale(0.100000,-0.100000)"
fill="#ffffff" stroke="none">
<path d="M6980 8241 c-189 -61 -325 -189 -382 -359 -11 -31 -22 -97 -25 -147
-10 -167 41 -311 149 -430 69 -75 133 -118 230 -153 73 -27 74 -27 448 -32
l375 -5 66 -32 c171 -84 270 -287 225 -464 -9 -35 -26 -83 -37 -106 -31 -63
-114 -142 -188 -177 l-66 -31 -385 0 -384 0 -176 281 c-170 273 -469 755 -595
959 -109 176 -196 317 -260 420 -34 55 -88 142 -119 193 -32 51 -61 90 -65 87
-8 -4 -45 -62 -288 -445 -133 -209 -505 -793 -666 -1045 -237 -369 -387 -606
-387 -610 0 -3 45 -5 99 -5 l99 0 108 168 c59 92 180 282 269 422 89 140 235
370 325 510 90 140 204 320 255 400 50 80 113 180 140 222 l49 76 84 -136 c46
-75 149 -240 227 -367 284 -457 474 -765 635 -1027 l165 -267 425 -1 c468 0
486 2 610 62 44 21 88 55 135 102 119 119 169 243 168 416 -1 110 -30 218 -82
298 -68 106 -196 204 -316 243 -28 8 -153 14 -415 18 -352 6 -378 8 -428 28
-335 136 -350 597 -25 759 l58 29 603 3 602 3 0 79 0 80 -602 -1 c-549 0 -608
-2 -658 -18z"/>
<path d="M2563 5088 c-5 -7 -38 -85 -73 -173 -35 -88 -69 -175 -77 -192 l-13
-33 43 0 c42 0 44 1 57 40 l13 40 89 0 88 0 16 -40 c15 -37 19 -40 56 -40 22
0 38 4 36 8 -1 5 -36 97 -77 205 l-74 197 -37 0 c-21 0 -42 -6 -47 -12z m76
-167 c11 -36 21 -69 21 -73 0 -4 -25 -8 -55 -8 -30 0 -55 4 -55 8 0 8 27 91
45 141 8 22 20 3 44 -68z"/>
<path d="M3158 5094 c-5 -4 -8 -97 -8 -206 l0 -198 40 0 40 0 0 70 0 70 38 0
c36 0 39 -3 76 -70 40 -70 40 -70 83 -70 24 0 43 2 43 5 0 2 -18 33 -40 67
-22 35 -40 68 -40 74 0 6 11 16 26 22 27 13 54 66 54 108 0 40 -27 88 -62 109
-25 14 -58 20 -138 23 -58 2 -108 1 -112 -4z m212 -89 c24 -22 26 -52 4 -83
-13 -19 -24 -22 -80 -22 l-64 0 0 66 0 66 60 -4 c39 -3 66 -11 80 -23z"/>
<path d="M3950 5087 c-46 -15 -106 -77 -119 -124 -32 -113 14 -219 113 -264
73 -33 161 -20 216 31 27 26 30 33 19 46 -26 32 -48 36 -72 13 -31 -29 -64
-40 -101 -34 -40 8 -59 22 -85 65 -38 64 -18 154 43 191 50 31 101 23 151 -21
19 -18 21 -18 49 5 l29 23 -27 27 c-52 52 -134 68 -216 42z"/>
<path d="M4552 4893 l3 -208 35 0 35 0 3 81 c3 95 2 94 115 94 l67 0 0 -85 0
-85 40 0 40 0 0 206 0 205 -37 -3 -38 -3 -3 -82 -3 -83 -89 0 -89 0 -3 83 -3
82 -38 3 -37 3 2 -208z"/>
<path d="M5328 5084 c-62 -33 -73 -123 -22 -163 14 -11 55 -29 92 -41 80 -26
117 -60 107 -99 -9 -36 -21 -48 -61 -61 -46 -16 -96 -5 -134 27 -23 19 -34 23
-42 15 -28 -28 60 -82 132 -82 85 0 140 44 140 111 0 58 -37 94 -121 119 -80
24 -109 48 -109 88 0 38 30 63 82 69 35 4 50 0 82 -22 26 -18 42 -23 49 -16 7
7 6 16 -4 27 -35 42 -138 57 -191 28z"/>
<path d="M5913 5081 c-150 -70 -147 -316 5 -383 175 -78 348 117 260 292 -48
94 -169 136 -265 91z m145 -26 c55 -23 81 -53 98 -111 27 -94 -16 -187 -100
-219 -146 -56 -268 107 -193 255 16 33 34 51 67 68 52 26 78 27 128 7z"/>
<path d="M6489 5095 c-6 -6 0 -384 6 -403 3 -9 33 -11 115 -10 97 3 110 5 110
21 0 15 -11 17 -100 17 l-100 0 0 190 c0 152 -3 190 -13 190 -8 0 -16 -2 -18
-5z"/>
<path d="M7020 4941 c0 -148 1 -160 23 -192 33 -50 80 -71 149 -66 72 4 123
40 138 97 6 22 9 101 8 177 -3 115 -6 138 -18 138 -12 0 -16 -26 -20 -155 -6
-180 -14 -201 -81 -221 -52 -16 -112 3 -143 44 -19 25 -21 45 -24 183 -3 125
-6 154 -18 154 -11 0 -14 -28 -14 -159z"/>
<path d="M7635 5090 c-13 -21 8 -30 65 -30 l60 0 2 -187 c3 -159 5 -188 18
-188 13 0 15 29 18 187 l2 187 68 3 c52 2 67 6 67 18 0 13 -24 15 -147 18 -92
2 -149 -1 -153 -8z"/>
<path d="M8238 5093 c-2 -5 -3 -19 -2 -33 0 -14 1 -103 2 -197 2 -146 4 -173
17 -173 13 0 15 29 15 205 0 172 -2 205 -14 205 -8 0 -16 -3 -18 -7z"/>
<path d="M8700 5084 c-78 -34 -120 -101 -120 -194 0 -72 16 -115 59 -155 108
-102 285 -52 327 93 17 56 12 116 -11 162 -18 35 -75 87 -108 99 -40 15 -106
13 -147 -5z m160 -42 c150 -111 60 -359 -118 -326 -49 9 -107 67 -121 122 -25
89 20 188 99 221 34 15 109 5 140 -17z"/>
<path d="M9274 5087 c-2 -7 -3 -100 -2 -207 3 -165 5 -195 18 -195 13 0 16 27
20 167 l5 167 121 -167 c66 -92 127 -167 135 -167 11 0 14 35 17 199 2 180 -3
234 -22 215 -3 -2 -6 -80 -7 -172 -1 -92 -5 -167 -8 -167 -4 0 -27 28 -51 63
-101 144 -202 277 -211 277 -5 0 -12 -6 -15 -13z"/>
<path d="M9953 5080 c-38 -23 -53 -48 -53 -89 0 -49 40 -86 121 -110 38 -12
79 -31 89 -41 43 -43 11 -112 -58 -126 -38 -8 -117 19 -131 44 -12 22 -35 3
-25 -21 9 -25 85 -57 135 -57 87 0 154 74 129 143 -17 49 -38 66 -112 88 -38
11 -78 29 -89 40 -25 25 -24 71 2 95 31 28 108 26 148 -4 26 -19 32 -20 37 -8
8 21 0 31 -40 50 -46 22 -114 20 -153 -4z"/>
</g>
</svg>
